<svg width="66" height="42" viewBox="0 0 66 42" fill="none" xmlns="http://www.w3.org/2000/svg">
<path d="M48 4V13.861C48 16.1849 47.3712 17.9597 46.1137 19.1854C44.8561 20.3951 43.0732 21 40.765 21C39.6189 21 38.5922 20.8329 37.6848 20.4986C36.7934 20.1643 36.0611 19.6948 35.4881 19.0899C34.8991 19.6948 34.1589 20.1643 33.2674 20.4986C32.376 20.8329 31.3652 21 30.235 21C27.9268 21 26.1439 20.3951 24.8863 19.1854C23.6288 17.9597 23 16.1849 23 13.861V4H26.8682V13.7416C26.8682 15.0946 27.1468 16.0974 27.7039 16.75C28.2611 17.3867 29.0888 17.7051 30.1872 17.7051C32.4317 17.7051 33.554 16.3839 33.554 13.7416V4H37.4222V13.7416C37.4222 16.3839 38.5524 17.7051 40.8128 17.7051C43.0096 17.7051 44.1079 16.3839 44.1079 13.7416V4H48Z" fill="#292E39"/>
<path d="M3.82 41H2.22V32.88H0.42V31.4H2.22V30.24C2.22 29.6 2.31333 29.0467 2.5 28.58C2.7 28.1 2.96667 27.7333 3.3 27.48C3.63333 27.2267 3.98667 27.0467 4.36 26.94C4.74667 26.82 5.16667 26.76 5.62 26.76C6.47333 26.76 7.27333 26.9067 8.02 27.2V28.68C7.40667 28.3867 6.73333 28.24 6 28.24C5.32 28.24 4.78667 28.3867 4.4 28.68C4.01333 28.96 3.82 29.5 3.82 30.3V31.4H7.42V32.88H3.82V41ZM16.7995 39C16.7995 39.4933 17.0462 39.74 17.5395 39.74C17.7529 39.74 17.9995 39.6933 18.2795 39.6V40.9C17.8795 41.0467 17.4795 41.12 17.0795 41.12C16.1595 41.12 15.5729 40.7333 15.3195 39.96C14.2929 40.8133 13.0462 41.24 11.5795 41.24C10.6462 41.24 9.8462 40.9933 9.17953 40.5C8.5262 39.9933 8.19953 39.2667 8.19953 38.32C8.19953 37.1867 8.61953 36.3667 9.45953 35.86C10.3129 35.34 11.3395 35.08 12.5395 35.08C13.4195 35.08 14.3062 35.18 15.1995 35.38V35.04C15.1995 34.3067 14.9595 33.7267 14.4795 33.3C13.9995 32.86 13.3262 32.64 12.4595 32.64C11.2462 32.64 10.0795 32.88 8.95953 33.36V31.8C10.2129 31.3733 11.4329 31.16 12.6195 31.16C13.9262 31.16 14.9462 31.5133 15.6795 32.22C16.4262 32.9133 16.7995 33.92 16.7995 35.24V39ZM9.83953 38.24C9.83953 38.7733 10.0395 39.18 10.4395 39.46C10.8529 39.7267 11.3462 39.86 11.9195 39.86C13.2395 39.86 14.3329 39.3933 15.1995 38.46V36.7C14.2929 36.5133 13.4795 36.42 12.7595 36.42C11.9462 36.42 11.2529 36.5667 10.6795 36.86C10.1195 37.14 9.83953 37.6 9.83953 38.24ZM26.6092 31.4H28.3892L24.1492 41H22.4692L18.2292 31.4H20.0092L23.3092 39.2L26.6092 31.4ZM31.7919 41H30.1919V31.4H31.7919V41ZM31.7319 27.6C31.9319 27.7733 32.0319 28.02 32.0319 28.34C32.0319 28.66 31.9319 28.9133 31.7319 29.1C31.5319 29.2733 31.2852 29.36 30.9919 29.36C30.6985 29.36 30.4519 29.2733 30.2519 29.1C30.0519 28.9133 29.9519 28.66 29.9519 28.34C29.9519 28.02 30.0519 27.7733 30.2519 27.6C30.4519 27.4133 30.6985 27.32 30.9919 27.32C31.2852 27.32 31.5319 27.4133 31.7319 27.6ZM34.1403 36.24C34.1403 35.4 34.2936 34.6467 34.6003 33.98C34.907 33.3133 35.307 32.78 35.8003 32.38C36.307 31.98 36.8603 31.68 37.4603 31.48C38.0736 31.2667 38.7003 31.16 39.3403 31.16C40.527 31.16 41.5136 31.42 42.3003 31.94V33.5C41.567 32.9267 40.647 32.64 39.5403 32.64C38.5003 32.64 37.607 32.94 36.8603 33.54C36.1136 34.14 35.7403 35.0267 35.7403 36.2C35.7403 37.36 36.107 38.2467 36.8403 38.86C37.587 39.46 38.4736 39.76 39.5003 39.76C40.567 39.76 41.5336 39.5 42.4003 38.98V40.58C41.4936 41.02 40.4536 41.24 39.2803 41.24C37.8936 41.24 36.687 40.8067 35.6603 39.94C34.647 39.0733 34.1403 37.84 34.1403 36.24ZM45.4064 39.9C44.3931 38.9933 43.8864 37.76 43.8864 36.2C43.8864 34.64 44.3931 33.4133 45.4064 32.52C46.4197 31.6133 47.6197 31.16 49.0064 31.16C50.4064 31.16 51.6064 31.6133 52.6064 32.52C53.6197 33.4133 54.1264 34.64 54.1264 36.2C54.1264 37.76 53.6197 38.9933 52.6064 39.9C51.6064 40.7933 50.4064 41.24 49.0064 41.24C47.6197 41.24 46.4197 40.7933 45.4064 39.9ZM51.5264 38.78C52.1931 38.14 52.5264 37.28 52.5264 36.2C52.5264 35.12 52.1931 34.2667 51.5264 33.64C50.8597 33 50.0197 32.68 49.0064 32.68C47.9931 32.68 47.1531 33 46.4864 33.64C45.8197 34.2667 45.4864 35.12 45.4864 36.2C45.4864 37.28 45.8197 38.14 46.4864 38.78C47.1531 39.4067 47.9931 39.72 49.0064 39.72C50.0197 39.72 50.8597 39.4067 51.5264 38.78ZM57.8614 32.82C58.2081 32.3533 58.6881 31.96 59.3014 31.64C59.9281 31.32 60.6014 31.16 61.3214 31.16C62.4814 31.16 63.4347 31.5267 64.1814 32.26C64.9414 32.98 65.3214 33.92 65.3214 35.08V41H63.7214V35.28C63.7214 34.4133 63.4814 33.76 63.0014 33.32C62.5347 32.8667 61.9147 32.64 61.1414 32.64C59.9147 32.64 58.8747 33.28 58.0214 34.56V41H56.4214V31.4H57.8614V32.82Z" fill="#292E39"/>
</svg>
